<svg xmlns="http://www.w3.org/2000/svg" viewBox="0 0 512 473"><defs><style>.cls-1{fill-rule:evenodd;}</style></defs><g id="레이어_2" data-name="레이어 2"><g id="레이어_1-2" data-name="레이어 1"><path class="cls-1" d="M512,223.51A431.93,431.93,0,0,0,261,140a4.71,4.71,0,0,0,0-.53,4.5,4.5,0,0,0-4-4.47V117a44,44,0,0,0,43-44c0-.29,0-.58,0-.87.33-.21.64-.43.95-.64l-.28-.42-.28-.41-.14.09a.5.5,0,0,1-.12.08L300,71a43.75,43.75,0,0,0-5.21-18.83l.68.05,0-.5,0-.5-1.34-.09A44,44,0,0,0,257,29V21h-.5a4.5,4.5,0,1,0-4.5-4.5,4.5,4.5,0,0,0,4.5,4.5H256v8a44,44,0,0,0-44,44v.14c-.34.22-.67.45-1,.67l.28.41.29.41.44-.3a43.74,43.74,0,0,0,4.86,18.83l-.18,0h-.17l0,.5,0,.5,1,.07A44,44,0,0,0,256,117v18a4.5,4.5,0,0,0-4,4.47,4.41,4.41,0,0,0,0,.52A432,432,0,0,0,0,223.51v1.24A430.89,430.89,0,0,1,252.26,141,4.52,4.52,0,0,0,256,144v15h-1v1h2v-1h0V144a4.49,4.49,0,0,0,3.73-2.95A431,431,0,0,1,512,224.75ZM260,3.5A3.5,3.5,0,1,1,256.5,0,3.5,3.5,0,0,1,260,3.5Zm0,13a3.5,3.5,0,1,1-3.5-3.5A3.5,3.5,0,0,1,260,16.5ZM257,30a43,43,0,0,1,36.41,21.77l0,.26h.17A42.78,42.78,0,0,1,299,71.6l-.15.09-.14.1.27.42,0,.06c0,.24,0,.48,0,.73a43,43,0,0,1-42,43V83a10,10,0,0,0,0-19.9V56.34q1-.24,1.92-.45l-.11-.49-.11-.49-1.7.4Zm-1,86a43,43,0,0,1-37.48-21.91v-.33l0-.5-.35,0h-.16a42.67,42.67,0,0,1-5-19.55l.25-.17L213,73.1V73a43,43,0,0,1,43-43V63a10,10,0,0,0,0,20Zm54.83-57-.5,0-.5,0a4.52,4.52,0,0,0-.13-.82,3.83,3.83,0,0,0-.3-.77l.45-.22.45-.23a5.6,5.6,0,0,1,.37,1A6,6,0,0,1,310.83,59Zm-3.42-4.84-.25.43-.26.43a12,12,0,0,0-1.72-.85l.2-.47.19-.46A14.34,14.34,0,0,1,307.41,54.17Zm-5.78-2.12-.11.49-.11.48c-.63-.13-1.28-.26-2-.37l.08-.5.08-.49C300.31,51.78,301,51.9,301.63,52.05ZM289.32,51v1l-2.05,0V51ZM277,51.74l.06.5,0,.5-2,.24-.06-.49-.07-.5Zm-6.14.83.08.5.08.49-2,.33-.09-.5-.08-.49Zm-6.09,1.07.1.49.09.49-2,.4-.1-.49-.1-.49Zm-12.06,2.75.13.48.12.49-1,.26-1,.27-.13-.48-.13-.48,1-.28Zm-6,1.67.14.47L247,59l-2,.6-.14-.48-.15-.48Zm-5.9,1.85.15.47.16.48c-.65.21-1.3.43-1.94.66L239,61l-.16-.47ZM235,62l.17.47.17.47-1.91.73-.18-.47-.18-.46Zm-5.76,2.28.19.46.19.46-1.88.8-.2-.46-.2-.46Zm-5.65,2.51.21.45.21.45-1.84.89-.22-.45-.22-.45C222.33,67.34,223,67,223.58,66.75Zm-5.52,2.78.23.44.24.44-1.78,1L216.5,71l-.25-.43C216.84,70.2,217.44,69.87,218.06,69.53ZM207.7,76.29l.32.38.31.39c-.54.44-1,.88-1.51,1.31l-.34-.37-.34-.37C206.63,77.19,207.15,76.74,207.7,76.29Zm-4.37,4.36.4.3.39.31a13.3,13.3,0,0,0-1.06,1.59l-.43-.24-.44-.25A14.51,14.51,0,0,1,203.33,80.65Zm-2.21,5.64a5,5,0,0,0,.17,1,5.26,5.26,0,0,0,.36,1l.45-.22.45-.23a3.62,3.62,0,0,1-.3-.77,4.28,4.28,0,0,1-.13-.81l-.5,0Zm3.42,4.84.25-.43.26-.43a14.51,14.51,0,0,0,1.72.85l-.19.46-.2.46A14.33,14.33,0,0,1,204.54,91.13Zm5.78,2.12.11-.49.11-.49c.63.14,1.28.27,2,.38l-.08.49-.08.5C211.65,93.52,211,93.39,210.32,93.25Zm12.31,1.09v-1l2,0v1ZM235,93.55l-.06-.49,0-.5,2-.24.06.49.07.5Zm6.14-.83-.08-.49-.08-.49,2-.33.09.49.08.5Zm6.09-1.06-.1-.49-.09-.49,2-.4.1.49.11.49Zm6.05-1.28-.11-.48-.11-.49,2-.47.11.49.12.48Zm6-1.47-.13-.49-.12-.48.38-.1.61-.16,1-.27.13.48.13.48-1,.27Zm6-1.67-.15-.48-.14-.48,2-.59.14.48.15.47C266.55,86.85,265.89,87,265.23,87.24Zm5.9-1.85-.16-.48-.16-.47,1.95-.66.16.47.16.47C272.44,85,271.78,85.17,271.13,85.39ZM277,83.33l-.17-.47-.17-.47,1.91-.72.18.46.18.47C278.26,82.85,277.61,83.09,277,83.33Zm5.76-2.27-.19-.46-.19-.46,1.88-.8.2.45.2.46Zm5.66-2.51-.22-.45-.21-.45,1.84-.89.22.45.22.45Zm5.51-2.79-.23-.44-.24-.43c.61-.33,1.2-.67,1.78-1l.25.44.25.43C295.11,75.1,294.51,75.43,293.89,75.76ZM304.25,69l-.31-.39-.32-.38c.54-.44,1-.88,1.51-1.31l.34.36.34.37Q305.08,68.34,304.25,69Zm4.37-4.36-.4-.3-.39-.31a13.37,13.37,0,0,0,1.06-1.6l.44.25.43.24A12.78,12.78,0,0,1,308.62,64.65ZM281,55a4,4,0,1,0-4-4A4,4,0,0,0,281,55ZM231,94a3,3,0,1,1-3-3A3,3,0,0,1,231,94Zm26,335.56a22.76,22.76,0,0,0,22.05-22.77v-.2c0-.12,0-.25,0-.37a23.16,23.16,0,0,0-.24-2.78A23.33,23.33,0,0,1,280,406a26.05,26.05,0,0,1-23,36v24a3.5,3.5,0,1,1-1,0V442a26,26,0,0,1-21.95-40,24.79,24.79,0,0,0-.42,2.76c0,.67-.08,1.34-.08,2A22.76,22.76,0,0,0,256,429.57V407c-.41-2.79-1-4.55-2.22-5.75-1.8-1.8-4.87-2.29-10.78-2.72,5.9-.43,9-.92,10.78-2.72,1.2-1.2,1.81-3,2.22-5.75V366a2.5,2.5,0,0,1,0-4.9V352a4.5,4.5,0,0,1,0-8.94V315h-1v-1h1v-7h1v36a4.5,4.5,0,0,1,0,8.94v9.08a2.5,2.5,0,0,1,0,4.9V390c.41,2.79,1,4.55,2.22,5.75,1.8,1.8,4.87,2.29,10.78,2.72-5.9.43-9,.92-10.78,2.72-1.2,1.2-1.81,3-2.22,5.75ZM256,307a70,70,0,1,1,70-70A70,70,0,0,1,256,307Zm0,134a25.06,25.06,0,0,1-23.45-33.74A23.75,23.75,0,0,0,280,408.8,25.06,25.06,0,0,1,256,441ZM107,238.5h53.91v-1H107Zm2.35,25.87L162.44,255l-.17-1-53.09,9.37ZM166.81,271l-50.66,18.44-.34-.94,50.66-18.43Zm-39.6,41.94L173.9,286l-.5-.87-46.69,27Zm56.27-13.43-41.3,34.66-.64-.77,41.29-34.65Zm-22.87,53,34.65-41.29-.76-.65-34.66,41.3Zm48.28-31.86-27,46.69-.86-.5,27-46.69Zm-3.38,57.59,18.43-50.66-.93-.34-18.44,50.66ZM240,331.73l-9.36,53.09-1-.17L239,331.56Zm42.39,52.92L273,331.56l-1,.17,9.37,53.09ZM289,327.19l18.44,50.66-.94.34-18.43-50.66Zm41.94,39.6L304,320.1l-.87.5,27,46.69ZM317.5,310.52l34.66,41.3-.77.64-34.65-41.29Zm53,22.87-41.29-34.65-.65.76,41.3,34.66ZM338.6,285.11l46.69,27-.5.86L338.1,286Zm57.59,3.38-50.66-18.43-.34.93,50.66,18.44ZM349.73,254l53.09,9.37-.17,1L349.56,255Zm35.79-4.84-34.75-3.39-.1,1,34.75,3.39ZM348,262.13l33.64,9.37-.27,1-33.64-9.37Zm25.91,30.67L342.4,277.73l-.43.91,31.49,15.06Zm-39.7-.67,28.39,20.31-.58.82L333.61,293ZM348,329.82,323.6,304.89l-.72.7,24.44,24.93ZM311,315.61l19.74,28.79-.82.57-19.74-28.79Zm.13,40.14L296.64,324l-.91.41,14.44,31.78Zm-30-26,8.7,33.82-1,.25L280.13,330Zm-13.62,37.77-2.69-34.81-1,.08,2.7,34.81Zm-19.27-34.72-3.39,34.75-1-.1,3.39-34.75Zm-25.7,30.85L231.87,330l-1-.27-9.37,33.64Zm-6.24-39.22L201.2,355.89l-.9-.43L215.37,324Zm-34.71,20.18,20.31-28.39-.82-.58L180.74,344Zm7.55-39L164.18,330l-.7-.71,24.93-24.44Zm-39.51,7.09L178.39,293l-.57-.82L149,311.87ZM170,278.64l-31.77,14.44-.42-.91,31.78-14.44Zm-39.56-6.84,33.82-8.7-.25-1-33.82,8.7Zm30.86-25-34.81,2.69-.08-1,34.81-2.7ZM405,237.5H351.09v1H405ZM334,238h-1c0-.33,0-.65,0-1v-1h1c0,.33,0,.66,0,1S334,237.66,334,238Zm0-4-.5,0-.5,0c0-.65-.06-1.3-.1-1.95l.5,0,.5,0C333.89,232.71,333.92,233.37,334,234Zm-.25-3.94-.5,0-.5,0c-.06-.64-.12-1.29-.19-1.94l.49,0,.5-.06C333.57,228.77,333.64,229.43,333.7,230.09Zm-.45-3.93-.49.07-.5.07c-.09-.65-.18-1.29-.29-1.93l.49-.08.5-.08C333.06,224.86,333.16,225.51,333.25,226.16Zm-.64-3.9-.49.1-.49.09c-.12-.64-.25-1.28-.39-1.91l.49-.11.48-.1C332.35,221,332.49,221.61,332.61,222.26Zm-.84-3.86-.49.12-.48.12c-.16-.63-.32-1.26-.49-1.89l.48-.13.48-.13C331.45,217.12,331.61,217.76,331.77,218.4Zm-1-3.81-.48.14-.48.14c-.18-.62-.38-1.24-.58-1.86l.48-.15.47-.16C330.35,213.33,330.54,214,330.73,214.59Zm-1.23-3.76L329,211l-.47.17c-.22-.62-.45-1.23-.68-1.83l.47-.18.47-.18C329.05,209.59,329.28,210.21,329.5,210.83Zm-1.42-3.69-.46.19-.46.2c-.25-.61-.51-1.2-.77-1.8l.45-.2.46-.2C327.57,205.93,327.83,206.53,328.08,207.14Zm-1.6-3.61c-.29-.59-.58-1.19-.88-1.77l-.44.22-.45.23c.3.58.58,1.16.86,1.75l.45-.21ZM324.69,200l-.44.23-.44.24c-.31-.57-.63-1.14-.95-1.7l.43-.25.44-.25Zm-2-3.43-.42.26-.43.26-.8-1.3a3,3,0,0,1-1.07.2,3,3,0,1,1,1.93-.7C322.2,195.72,322.46,196.15,322.72,196.58ZM318.29,190l-.4.3-.4.3c-.4-.52-.79-1-1.2-1.54l.39-.31.39-.31C317.48,189,317.89,189.51,318.29,190ZM315.82,187l-.38.32-.38.32c-.42-.5-.84-1-1.27-1.48l.37-.33.38-.33C315,185.94,315.4,186.44,315.82,187Zm-2.61-3-.37.34-.36.34q-.66-.72-1.35-1.41l.36-.35.36-.35C312.31,183,312.76,183.5,313.21,184Zm-2.76-2.83-.35.36-.35.36q-.69-.69-1.41-1.35l.34-.36.34-.37C309.5,180.24,310,180.69,310.45,181.15Zm-2.9-2.69-.33.38-.33.37-1.48-1.27.32-.38.32-.38C306.56,177.6,307.06,178,307.55,178.46Zm-3-2.53-.31.39-.31.39c-.51-.41-1-.8-1.54-1.2l.3-.4.3-.4C303.49,175.11,304,175.52,304.52,175.93Zm-3.15-2.39-.29.41-.29.41-1.6-1.12.28-.41.28-.42Zm-3.27-2.22-.27.43-.27.42c-.55-.35-1.1-.7-1.66-1l.26-.42.26-.43C297,170.62,297.55,171,298.1,171.32Zm-3.38-2-.25.44-.25.43-1.7-.95.24-.44.23-.44Zm-3.48-1.87-.22.44-.23.45c-.58-.3-1.16-.58-1.75-.86l.21-.45.22-.46C290.06,166.81,290.66,167.1,291.24,167.4Zm-3.57-1.7-.2.46-.2.45c-.6-.26-1.19-.52-1.8-.77l.2-.46.19-.46C286.47,165.17,287.07,165.43,287.67,165.7ZM284,164.18l-.18.47-.18.47c-.6-.24-1.21-.46-1.83-.68L282,164l.17-.47Zm-3.72-1.32-.16.48-.15.47c-.62-.2-1.24-.4-1.86-.58l.14-.48.14-.48C279.05,162.46,279.67,162.65,280.3,162.86Zm-3.79-1.13-.13.48-.13.48-1.89-.49.12-.48.12-.49C275.24,161.39,275.88,161.55,276.51,161.73Zm-3.94-.46-.11.49c-.63-.14-1.27-.27-1.91-.39l.09-.49.1-.49c.65.12,1.29.26,1.93.4ZM268.79,160l-.08.5-.08.49-1.93-.29.07-.5.07-.49Zm-3.91-.54-.06.5-.05.49c-.65-.07-1.3-.14-1.94-.19l0-.5,0-.5Zm-3.94-.35,0,.5,0,.5-1.95-.1,0-.5,0-.5Zm-7.91-.1,0,.5,0,.5-1.95.1,0-.5,0-.5Zm-3.94.25,0,.5,0,.5c-.64,0-1.29.12-1.94.19l0-.49-.06-.5Zm-3.93.45.07.49.07.5-1.93.29-.08-.49-.08-.5Zm-3.9.64.1.49.09.49c-.64.12-1.28.25-1.91.39l-.11-.49-.1-.48C240,160.65,240.61,160.51,241.26,160.39Zm-3.86.84.12.49.12.48-1.89.49-.13-.48-.13-.48C236.12,161.55,236.76,161.39,237.4,161.23Zm-3.81,1,.14.48.14.48c-.62.18-1.24.38-1.86.58l-.15-.47-.16-.48C232.33,162.65,233,162.46,233.59,162.27Zm-3.76,1.23.17.47.17.47c-.62.22-1.23.44-1.83.68l-.18-.47-.18-.47Zm-3.69,1.42.19.46.2.46c-.61.25-1.2.51-1.8.77l-.2-.45-.2-.46C224.93,165.43,225.53,165.17,226.14,164.92Zm-3.61,1.6.22.46.21.45c-.59.28-1.17.56-1.75.86l-.23-.45-.22-.44C221.34,167.1,221.94,166.81,222.53,166.52ZM219,168.31l.23.44.24.44-1.7.95-.25-.43-.25-.44Zm-3.43,2,.26.43.26.42c-.56.34-1.11.69-1.66,1l-.27-.42-.27-.43C214.46,171,215,170.62,215.58,170.28Zm-3.33,2.13.28.42.28.41-1.6,1.12-.29-.41-.29-.41Zm-3.21,2.3.3.4.3.4c-.52.4-1,.79-1.54,1.2l-.31-.39-.31-.39C208,175.52,208.51,175.11,209,174.71ZM206,177.18l.32.38.32.38-1.48,1.27-.33-.37-.33-.38C204.94,178,205.44,177.6,206,177.18Zm-3,2.61.34.37.34.36q-.72.66-1.41,1.35l-.35-.36-.35-.36C202,180.69,202.5,180.24,203,179.79Zm-2.83,2.76.36.35.36.35q-.69.69-1.35,1.41l-.36-.34-.37-.34C199.24,183.5,199.69,183,200.15,182.55Zm-2.69,2.9.38.33.37.33c-.43.49-.85,1-1.27,1.48l-.38-.32-.38-.32C196.6,186.44,197,185.94,197.46,185.45Zm-2.53,3,.39.31.39.31c-.41.51-.8,1-1.2,1.54l-.39-.3-.41-.3C194.11,189.51,194.52,189,194.93,188.48Zm-2.39,3.15.41.29.41.29c-.38.53-.75,1.06-1.12,1.6l-.41-.28-.42-.28Zm-2.22,3.27.43.27.42.27c-.35.55-.7,1.1-1,1.66l-.42-.26-.43-.26C189.62,196,190,195.46,190.32,194.9Zm-2,3.38.44.25.43.25c-.32.56-.64,1.13-.95,1.7l-.44-.24-.44-.23Zm-1.87,3.48.44.22.45.23c-.3.58-.58,1.16-.86,1.75l-.45-.21-.46-.22C185.81,202.94,186.1,202.34,186.4,201.76Zm-1.7,3.57.46.2.45.2c-.26.6-.52,1.19-.77,1.8l-.46-.2-.46-.19C184.17,206.53,184.43,205.93,184.7,205.33ZM183.18,209l.47.18.47.18c-.24.6-.46,1.21-.68,1.83L183,211l-.47-.17C182.72,210.21,183,209.59,183.18,209Zm-1.32,3.72.48.16.47.15c-.2.62-.4,1.24-.58,1.86l-.48-.14-.48-.14C181.46,214,181.65,213.33,181.86,212.7Zm-1.13,3.79.48.13.48.13c-.17.63-.33,1.26-.49,1.89l-.48-.12-.49-.12C180.39,217.76,180.55,217.12,180.73,216.49Zm-.94,3.84.48.1.49.11c-.14.63-.27,1.27-.39,1.91l-.49-.09-.49-.1C179.51,221.61,179.65,221,179.79,220.33Zm-.75,3.88.5.08.49.08c-.1.64-.2,1.28-.29,1.93l-.5-.07-.49-.07C178.84,225.51,178.94,224.86,179,224.21Zm-.54,3.91.5.06.49,0c-.07.65-.14,1.3-.19,1.94l-.5,0-.5,0C178.36,229.43,178.43,228.77,178.5,228.12Zm-.35,3.94.5,0,.5,0c0,.65-.07,1.3-.1,1.95l-.5,0-.5,0C178.08,233.37,178.11,232.71,178.15,232.06ZM178,236c0,.33,0,.66,0,1v.54c0,.15,0,.3,0,.45h1c0-.33,0-.65,0-1v-.35c0-.21,0-.42,0-.63h-1Zm0,4,.5,0,.5,0c0,.65.06,1.3.1,1.95l-.5,0-.5,0C178.11,241.29,178.08,240.63,178.05,240Zm.25,3.94.5,0,.5,0c0,.64.12,1.29.19,1.94l-.49,0-.5.06C178.43,245.23,178.36,244.57,178.3,243.91Zm.45,3.93.49-.07.5-.07c.09.65.19,1.29.29,1.93l-.49.08-.5.08C178.94,249.14,178.84,248.49,178.75,247.84Zm.64,3.9.49-.1.49-.09c.12.64.25,1.28.39,1.91l-.49.11-.48.1C179.65,253,179.51,252.39,179.39,251.74Zm.84,3.86.49-.12.48-.12c.16.63.32,1.26.49,1.89l-.48.13-.48.13C180.55,256.88,180.39,256.24,180.23,255.6Zm1,3.81.48-.14.48-.14c.18.62.38,1.24.58,1.86l-.47.15-.48.16C181.65,260.67,181.46,260.05,181.27,259.41Zm1.23,3.76L183,263l.47-.17c.22.62.44,1.23.68,1.83l-.47.18-.47.18C183,264.41,182.72,263.79,182.5,263.17Zm1.42,3.69.46-.19.46-.2c.25.61.51,1.2.77,1.8l-.45.2-.46.2C184.43,268.07,184.17,267.47,183.92,266.86Zm1.6,3.61.46-.22.45-.21c.28.59.56,1.17.86,1.75l-.45.23-.44.22C186.1,271.66,185.81,271.06,185.52,270.47Zm1.79,3.52.44-.23.44-.24c.31.57.63,1.14.95,1.7l-.43.25-.44.25Zm2,3.43.43-.26.42-.26c.34.56.69,1.11,1,1.66l-.42.27-.43.27C190,278.55,189.62,278,189.28,277.42Zm2.13,3.33.42-.28.41-.28c.37.54.74,1.07,1.12,1.6l-.41.29-.41.29Zm2.3,3.21.41-.3.39-.3c.4.52.79,1,1.2,1.54l-.39.31-.39.31C194.52,285,194.11,284.49,193.71,284Zm2.47,3.09.38-.32.38-.32c.42.5.84,1,1.27,1.48l-.37.33-.38.33C197,288.06,196.6,287.56,196.18,287.05Zm2.61,3,.37-.34.36-.34q.66.72,1.35,1.41l-.36.35-.36.35C199.69,291,199.24,290.5,198.79,290Zm2.76,2.83.35-.36.35-.36q.69.69,1.41,1.35l-.34.36-.34.37C202.5,293.76,202,293.31,201.55,292.85Zm2.9,2.69.33-.38.33-.37,1.48,1.27-.32.38-.32.38C205.44,296.4,204.94,296,204.45,295.54Zm3,2.53.31-.39.31-.39c.51.41,1,.8,1.54,1.2l-.3.4-.3.4C208.51,298.89,208,298.48,207.48,298.07Zm3.15,2.38.29-.4.29-.41,1.6,1.12-.28.41-.28.42Q211.44,301,210.63,300.45ZM215,306a3,3,0,0,0,2.4-1.2l1.61.89.23-.44.24-.44-1.62-.9A3,3,0,0,0,218,303a3,3,0,1,0-3,3Zm5.76.6.22-.44.23-.45c.58.3,1.16.58,1.75.86l-.21.45-.22.46C221.94,307.19,221.34,306.9,220.76,306.6Zm3.57,1.7.2-.46.2-.45c.6.26,1.19.52,1.8.77l-.2.46-.19.46C225.53,308.83,224.93,308.57,224.33,308.3Zm3.65,1.52.18-.47.18-.47c.6.23,1.21.46,1.83.68L230,310l-.17.47Zm3.72,1.32c.63.21,1.25.4,1.89.59l.14-.48.14-.48c-.62-.18-1.24-.38-1.86-.58l-.15.48Zm3.79,1.13.13-.48.13-.48,1.89.49-.12.48-.12.49C236.76,312.61,236.12,312.45,235.49,312.27Zm3.84.94.1-.48.11-.49c.63.14,1.27.27,1.91.39l-.09.49-.1.49C240.61,313.49,240,313.35,239.33,313.21Zm3.88.75.08-.5.08-.49.74.12,1.19.17-.07.5-.07.49Zm3.91.54.06-.5,0-.49,1.94.19,0,.5,0,.5Zm3.94.35,0-.5,0-.5,1.95.1,0,.5,0,.5Zm7.91.1,0-.5,0-.5,1.95-.1,0,.5,0,.5Zm3.94-.25,0-.5,0-.5,1.94-.19.05.49.06.5Zm3.93-.45-.07-.49-.07-.5c.65-.09,1.29-.18,1.93-.29l.08.49.08.5Zm3.9-.64-.1-.49-.09-.49c.64-.12,1.28-.25,1.91-.39l.11.49.1.48C272,313.35,271.39,313.49,270.74,313.61Zm3.86-.84-.12-.49-.12-.48,1.89-.49.13.48.13.48C275.88,312.45,275.24,312.61,274.6,312.77Zm3.81-1-.14-.48-.14-.48c.62-.18,1.24-.38,1.86-.58l.15.48.16.47C279.67,311.35,279.05,311.54,278.41,311.73Zm3.76-1.23L282,310l-.17-.47c.62-.22,1.23-.45,1.83-.68l.18.47.18.47Zm3.69-1.42-.19-.46-.2-.46c.61-.25,1.2-.51,1.8-.77l.2.45.2.46C287.07,308.57,286.47,308.83,285.86,309.08Zm3.61-1.6-.22-.46-.21-.45c.59-.28,1.17-.56,1.75-.86l.23.45.22.44C290.66,306.9,290.06,307.19,289.47,307.48Zm3.52-1.79-.23-.44-.24-.44,1.7-.95.25.43.25.44Zm3.43-2-.26-.42-.26-.43c.56-.34,1.11-.69,1.66-1l.27.42.27.42Q297.27,303.21,296.42,303.72Zm3.33-2.13-.28-.42-.28-.41,1.6-1.12.29.41.29.4Q300.56,301,299.75,301.59Zm3.21-2.3-.3-.4-.3-.4c.52-.4,1-.79,1.54-1.2l.31.39.31.39C304,298.48,303.49,298.89,303,299.29Zm3.09-2.47-.32-.38-.32-.38,1.48-1.27.33.37.33.38C307.06,296,306.56,296.4,306.05,296.82Zm3-2.61c.48-.45,1-.9,1.43-1.36l-.35-.36-.35-.36q-.69.69-1.41,1.35l.34.36Zm2.83-2.76-.36-.35-.36-.35q.69-.69,1.35-1.41l.36.34.37.34C312.76,290.5,312.31,291,311.85,291.45Zm2.69-2.9-.38-.33-.37-.33c.43-.49.85-1,1.27-1.48l.38.32.38.32C315.4,287.56,315,288.06,314.54,288.55Zm2.53-3-.39-.31-.39-.31c.41-.51.8-1,1.2-1.54l.4.3.4.3C317.89,284.49,317.48,285,317.07,285.52Zm2.38-3.15-.4-.29-.41-.29c.38-.53.75-1.06,1.12-1.6l.41.28.42.28Q320,281.56,319.45,282.37Zm2.22-3.27-.42-.27-.42-.27c.35-.55.7-1.1,1-1.66l.43.26.42.26Q322.21,278.27,321.67,279.1Zm2.06-3.38-.44-.25-.43-.25c.32-.56.64-1.13.95-1.7l.44.24.44.23Zm1.87-3.48-.44-.22-.45-.23c.3-.58.58-1.16.86-1.75l.45.21.46.22C326.19,271.06,325.9,271.66,325.6,272.24Zm1.7-3.57-.46-.2-.45-.2c.26-.6.52-1.19.77-1.8l.46.2.46.19C327.83,267.47,327.57,268.07,327.3,268.67Zm1.52-3.65-.47-.18-.47-.18c.23-.6.46-1.21.68-1.83l.47.17.47.17C329.28,263.79,329.05,264.41,328.82,265Zm1.32-3.72-.47-.16-.48-.15c.2-.62.4-1.24.58-1.86l.48.14.48.14C330.54,260.05,330.35,260.67,330.14,261.3Zm1.13-3.79-.48-.13-.48-.13c.17-.63.33-1.26.49-1.89l.48.12.49.12C331.61,256.24,331.45,256.88,331.27,257.51Zm.46-3.94-.49-.11c.14-.63.27-1.27.39-1.91l.49.09.49.1c-.12.65-.26,1.29-.4,1.93Zm1.23-3.78-.5-.08-.49-.08c.11-.64.2-1.28.29-1.93l.5.07.49.07C333.16,248.49,333.06,249.14,333,249.79Zm.54-3.91-.5-.06-.49,0c.07-.65.13-1.3.19-1.94l.5,0,.5,0C333.64,244.57,333.57,245.23,333.5,245.88Zm.35-3.94-.5,0-.5,0c0-.65.07-1.3.1-1.95l.5,0,.5,0C333.92,240.63,333.89,241.29,333.85,241.94ZM256,306a69,69,0,1,0-69-69A69,69,0,0,0,256,306Zm59.39-67.62.49.12a4.23,4.23,0,0,0,0-2l-.49.12-.48.12a3.25,3.25,0,0,1,0,1.52Zm-.78-3.4.41-.29a9.63,9.63,0,0,0-1.35-1.49l-.34.38L313,234a7.51,7.51,0,0,1,1.2,1.32Zm-2.82-2.6.28-.41a19.79,19.79,0,0,0-1.73-1.05l-.24.44-.24.44c.6.33,1.15.66,1.65,1Zm-3.46-1.92.21-.45c-.58-.27-1.2-.54-1.84-.8l-.19.46-.19.46c.63.26,1.23.52,1.8.79ZM304.64,229l.17-.47c-.61-.22-1.25-.43-1.91-.65l-.15.48-.16.47c.65.21,1.28.43,1.88.64Zm-3.81-1.23.14-.48c-.63-.19-1.28-.37-1.94-.54l-.13.48-.13.48,1.92.54Zm-3.88-1,.12-.49-2-.46-.11.49-.11.49,1.95.45Zm-3.92-.88.1-.49-2-.38-.09.49-.09.49,2,.38Zm-3.95-.74.08-.49-2-.33-.08.5-.08.49c.67.11,1.33.21,2,.33Zm-4-.62.07-.5-2-.27-.07.49-.06.5,2,.27Zm-4-.53.06-.49-2-.23-.06.5-.05.49,2,.23Zm-4-.43.05-.5c-.66-.06-1.33-.13-2-.18l0,.49,0,.5,2,.19Zm-4-.35,0-.5-2-.14,0,.49,0,.5,2,.15Zm-4-.27,0-.5-2-.1,0,.49,0,.5,1,.05,1,.06Zm-4-.19,0-.5-2-.07,0,.5v.5l2,.07Zm-4-.13v-.5l-2,0v1l2,0Zm-4-.05V222h-2v1h2Zm-4,0V222l-2,0v1l2,0Zm-4,.09,0-.5-2,.07,0,.5,0,.5,2-.07Zm-4,.15,0-.49-2,.1,0,.5,0,.5,2-.11Zm-4,.23,0-.49-2,.14,0,.5,0,.5,2-.15Zm-4,.31,0-.49c-.68.05-1.35.12-2,.18l0,.5.05.5,2-.19Zm-4,.4-.06-.5-2,.23.06.49.06.5,2-.23Zm-19.79,3.48-.13-.48c-.66.17-1.31.35-1.94.54l.14.48.14.48,1.92-.54Zm-3.85,1.13-.15-.48c-.66.22-1.3.43-1.91.65l.17.47.17.47c.6-.21,1.23-.43,1.88-.64Zm-3.76,1.36-.19-.46c-.64.26-1.26.53-1.84.8l.21.45.21.46c.57-.27,1.17-.53,1.8-.79Zm-3.59,1.69-.24-.44a19.79,19.79,0,0,0-1.73,1.05l.28.41.28.42c.5-.34,1-.67,1.65-1Zm-3.23,2.22-.34-.38a9.63,9.63,0,0,0-1.35,1.49l.41.29.41.29A7.51,7.51,0,0,1,199,234ZM196,237.5a4.27,4.27,0,0,1,.12-1l.49.12.48.12a3.25,3.25,0,0,0,0,1.52l-.48.12-.49.12A4.27,4.27,0,0,1,196,237.5Zm1.39,2.52-.41.29a9.63,9.63,0,0,0,1.35,1.49l.34-.38.33-.37a7.51,7.51,0,0,1-1.2-1.32Zm2.82,2.6-.28.41a19.79,19.79,0,0,0,1.73,1.05l.24-.44.24-.44c-.6-.33-1.15-.66-1.65-1Zm3.46,1.92-.21.45c.58.27,1.2.54,1.84.8l.19-.46.19-.46c-.63-.26-1.23-.52-1.8-.79Zm3.69,1.51-.17.47c.61.22,1.25.43,1.91.65l.15-.48.16-.47c-.65-.21-1.28-.43-1.88-.64Zm3.81,1.23-.14.48c.63.19,1.28.37,1.94.54l.13-.48.13-.48-1.92-.54Zm19.71,3.8-.06.49,2,.23.06-.5.05-.49-2-.23Zm4,.43,0,.5c.66.06,1.33.13,2,.18l0-.49,0-.5-2-.19Zm4,.35,0,.5,2,.14,0-.49,0-.5-2-.15Zm4,.27,0,.5,2,.1,0-.49,0-.5-2-.11Zm4,.19,0,.5,2,.07,0-.5v-.5l-2-.07Zm4,.13v.5l2,0v-1l-2,0Zm4,.05v.5h2v-1h-2Zm4,0v.5l2,0v-1l-2,0Zm4-.09,0,.5,2-.07,0-.5,0-.5-2,.07Zm4-.15,0,.49,2-.1,0-.5,0-.5-2,.11Zm4-.23,0,.49,2-.14,0-.5,0-.5-2,.15Zm4-.31,0,.49c.68-.05,1.35-.12,2-.18l-.05-.5-.05-.5-2,.19Zm4-.4.06.5,2-.23-.06-.49-.06-.5-2,.23Zm4-.47.07.49,2-.27-.07-.5-.08-.49-2,.27Zm4-.58.08.5,2-.33-.08-.49-.09-.5c-.65.12-1.31.22-2,.33Zm4-.68.09.49,2-.38-.1-.49-.1-.49-2,.38Zm3.94-.8.11.49,2-.46-.12-.49-.11-.48-1.95.45Zm3.9-1,.13.48c.66-.17,1.31-.35,1.94-.54l-.14-.48-.14-.48-1.92.54Zm7.61-2.49.19.46c.64-.26,1.26-.53,1.84-.8l-.21-.45-.21-.46c-.57.27-1.17.53-1.8.79Zm3.59-1.69.24.44a19.79,19.79,0,0,0,1.73-1.05l-.28-.41-.28-.42c-.5.34-1.05.67-1.65,1Zm3.23-2.22.34.38a9.63,9.63,0,0,0,1.35-1.49l-.41-.29-.41-.29a7.51,7.51,0,0,1-1.2,1.32ZM292,216.9a35.35,35.35,0,1,0-1.9,43.34A42,42,0,1,1,292,216.9ZM304,248a2,2,0,1,0-2-2A2,2,0,0,0,304,248Zm-48-16a5,5,0,0,0,0,10Zm6,5a6,6,0,1,1-6-6A6,6,0,0,1,262,237Zm-6-48a28.77,28.77,0,0,1,.51-4.15,3.86,3.86,0,0,1,3.34-3.34A28.77,28.77,0,0,1,264,181a28.77,28.77,0,0,1-4.15-.51,3.86,3.86,0,0,1-3.34-3.34A28.77,28.77,0,0,1,256,173a28.77,28.77,0,0,1-.51,4.15,3.86,3.86,0,0,1-3.34,3.34A28.77,28.77,0,0,1,248,181a28.77,28.77,0,0,1,4.15.51,3.86,3.86,0,0,1,3.34,3.34A28.77,28.77,0,0,1,256,189Zm.9-7.1a4.66,4.66,0,0,0-.9,1.33,4.24,4.24,0,0,0-2.23-2.23,4.24,4.24,0,0,0,2.23-2.23,4.24,4.24,0,0,0,2.23,2.23A4.66,4.66,0,0,0,256.9,181.9Zm-.39,115A28.77,28.77,0,0,0,256,301a28.77,28.77,0,0,0-.51-4.15,3.86,3.86,0,0,0-3.34-3.34A28.77,28.77,0,0,0,248,293a28.77,28.77,0,0,0,4.15-.51,3.86,3.86,0,0,0,3.34-3.34A28.77,28.77,0,0,0,256,285a28.77,28.77,0,0,0,.51,4.15,3.86,3.86,0,0,0,3.34,3.34A28.77,28.77,0,0,0,264,293a28.77,28.77,0,0,0-4.15.51,3.86,3.86,0,0,0-3.34,3.34Zm-.51-1.62a4.24,4.24,0,0,1,2.23-2.23,4.24,4.24,0,0,1-2.23-2.23,4.24,4.24,0,0,1-2.23,2.23,4.24,4.24,0,0,1,2.23,2.23Z"/></g></g></svg>